<svg xmlns="http://www.w3.org/2000/svg" viewBox="0 0 24 24" width="24" height="24" fill="none" stroke="#EC4899" stroke-width="2" stroke-linecap="round" stroke-linejoin="round">
  <circle cx="12" cy="12" r="3"/>
  <path d="M19.4 15a1.7 1.7 0 0 0 .34 1.88l.06.06a2 2 0 1 1-2.83 2.83l-.06-.06A1.7 1.7 0 0 0 15 19.4a1.7 1.7 0 0 0-1 .17 1.7 1.7 0 0 0-.9 1.55V21a2 2 0 1 1-4 0v-.09a1.7 1.7 0 0 0-.9-1.55 1.7 1.7 0 0 0-1-.17 1.7 1.7 0 0 0-1.88.34l-.06.06a2 2 0 0 1-2.83-2.83l.06-.06A1.7 1.7 0 0 0 4.6 15a1.7 1.7 0 0 0-.17-1 1.7 1.7 0 0 0-1.55-.9H2.8a2 2 0 0 1 0-4h.09a1.7 1.7 0 0 0 1.55-.9 1.7 1.7 0 0 0 .17-1A1.7 1.7 0 0 0 4.27 5.3l-.06-.06a2 2 0 1 1 2.83-2.83l.06.06A1.7 1.7 0 0 0 9 4.6c.34 0 .68-.06 1-.17a1.7 1.7 0 0 0 .9-1.55V2.8a2 2 0 0 1 4 0v.09a1.7 1.7 0 0 0 .9 1.55c.32.11.66.17 1 .17a1.7 1.7 0 0 0 1.88-.34l.06-.06a2 2 0 1 1 2.83 2.83l-.06.06A1.7 1.7 0 0 0 19.4 9c0 .34.06.68.17 1a1.7 1.7 0 0 0 1.55.9h.09a2 2 0 0 1 0 4h-.09a1.7 1.7 0 0 0-1.55.9c-.11.32-.17.66-.17 1z"/>
</svg>
